<svg width="24" height="20" viewBox="0 0 24 20" fill="none" xmlns="http://www.w3.org/2000/svg">
<path fill-rule="evenodd" clip-rule="evenodd" d="M0 6.5931C0 2.86897 3.25029 0 7.06286 0C9.02811 0 10.7589 0.926896 12 2.1269C13.2411 0.926896 14.9705 0 16.9371 0C20.7497 0 24 2.86897 24 6.5931C24 9.14483 22.9179 11.3876 21.419 13.2855C19.9241 15.1779 17.9657 16.7848 16.0923 18.091C15.3751 18.5903 14.6523 19.0497 13.9886 19.389C13.3673 19.7076 12.6514 20 12 20C11.3486 20 10.6341 19.7076 10.0114 19.389C9.28369 19.0021 8.58144 18.5686 7.90903 18.091C6.03429 16.7848 4.07726 15.1779 2.58103 13.2855C1.08206 11.3876 0 9.14483 0 6.5931ZM7.06286 2.06897C4.21029 2.06897 2.05714 4.17931 2.05714 6.5931C2.05714 8.52828 2.87451 10.331 4.19109 11.9972C5.5104 13.6662 7.2864 15.1407 9.08023 16.3903C9.75909 16.8634 10.3968 17.2648 10.9454 17.5462C11.5323 17.8469 11.8725 17.931 12 17.931C12.1275 17.931 12.4677 17.8469 13.056 17.5448C13.7025 17.2021 14.3256 16.8164 14.9211 16.3903C16.7136 15.1407 18.4896 13.6676 19.8089 11.9972C21.1255 10.331 21.9429 8.52828 21.9429 6.5931C21.9429 4.17931 19.7897 2.06897 16.9371 2.06897C15.2997 2.06897 13.7691 3.05241 12.816 4.30207C12.72 4.42795 12.5964 4.52992 12.4549 4.6001C12.3134 4.67027 12.1578 4.70677 12 4.70677C11.8422 4.70677 11.6866 4.67027 11.5451 4.6001C11.4036 4.52992 11.28 4.42795 11.184 4.30207C10.2309 3.05241 8.70171 2.06897 7.06286 2.06897Z" fill="#DC3545"/>
</svg>
