<svg width="120" height="117" viewBox="0 0 120 117" fill="none" xmlns="http://www.w3.org/2000/svg">
<path fill-rule="evenodd" clip-rule="evenodd" d="M101.499 70.6946C100.899 71.7946 99.5991 72.2946 98.3991 71.8946C96.0991 71.1946 93.8991 70.4946 91.6991 69.8946C89.4991 69.1946 87.1991 68.5946 84.9991 68.0946C80.4991 66.9946 75.9991 65.8946 71.4991 65.0946C69.3991 64.6946 67.8991 62.6946 68.2991 60.4946C68.3991 60.0946 68.4991 59.6946 68.6991 59.2946C70.8991 55.2946 73.2991 51.6946 75.7991 48.1946C78.2991 44.6946 80.9991 41.2946 83.8991 38.0946C84.8991 36.9946 86.5991 36.8946 87.6991 37.8946C88.5991 38.6946 88.7992 40.0946 88.2992 41.0946C86.2992 44.8946 84.1991 48.4946 81.9991 52.1946L78.7991 57.5946C78.6991 57.7946 78.4991 58.0946 78.3991 58.2946C81.3991 58.9946 84.2991 59.8946 87.1991 60.8946C89.4991 61.6946 91.7991 62.5946 93.9991 63.5946C96.1991 64.5946 98.4992 65.6946 100.599 66.8946C101.799 67.7946 102.299 69.3946 101.499 70.6946Z" fill="#59529F"/>
<path fill-rule="evenodd" clip-rule="evenodd" d="M48.9005 64.6954C48.5005 64.8954 48.1005 64.9954 47.7005 65.0954C43.2005 65.8954 38.7005 66.8954 34.2005 68.0954C32.0005 68.6954 29.7005 69.2954 27.5005 69.8954C25.3005 70.4954 23.1005 71.1954 20.8005 71.8954C19.4005 72.2954 17.9005 71.4954 17.5005 70.0954C17.2005 68.8954 17.7005 67.6954 18.7005 66.9954C20.8005 65.7954 23.0005 64.6954 25.2005 63.6954C27.4005 62.6954 29.7005 61.7954 32.0005 60.9954C34.9005 59.9954 37.8005 59.0954 40.8005 58.3954C40.7005 58.1954 40.5005 57.8954 40.4005 57.6954L37.2005 52.2954C35.0005 48.6954 32.9005 44.9954 30.9005 41.1954C30.2005 39.8954 30.7005 38.2954 32.0005 37.5954C33.1005 36.9954 34.4005 37.2954 35.2005 38.1954C38.1005 41.3954 40.8005 44.7954 43.3005 48.2954C45.8005 51.7954 48.2005 55.3954 50.4005 59.3954C51.5005 61.1954 50.9005 63.5954 48.9005 64.6954Z" fill="#532D7B"/>
<path fill-rule="evenodd" clip-rule="evenodd" d="M76.6992 114.595C75.4992 114.995 74.1993 114.595 73.4993 113.495C71.9993 111.095 70.5993 108.595 69.0993 106.095L64.8993 98.6951L60.6992 91.2951C60.3992 90.6951 59.9992 90.1951 59.6992 89.5951C59.3992 90.1951 58.9992 90.6951 58.6992 91.2951L54.4993 98.6951L50.1992 106.095C48.6992 108.495 47.2992 110.995 45.7992 113.395C44.9992 114.595 43.3993 114.995 42.0993 114.195C40.9993 113.495 40.5993 112.195 40.9993 110.995C41.9993 108.295 43.0992 105.695 44.2992 102.995C45.3992 100.395 46.6992 97.7951 47.8992 95.1951C49.1992 92.5951 50.4992 89.9951 51.8992 87.4951C53.2992 84.9951 54.6992 82.3951 56.3992 79.8951V79.7951C57.5992 77.9951 59.9992 77.4951 61.7992 78.6951C62.1992 78.9951 62.5993 79.3951 62.8993 79.7951C64.5993 82.3951 65.9993 84.8951 67.3993 87.4951C68.6992 90.0951 70.0992 92.5951 71.2992 95.1951C72.5992 97.7951 73.7993 100.395 74.8993 102.995C75.9993 105.695 77.1992 108.295 78.2992 110.995C78.7992 112.595 78.0992 114.095 76.6992 114.595Z" fill="#2A4B8F"/>
<path fill-rule="evenodd" clip-rule="evenodd" d="M56.8996 26.395C56.2996 24.395 55.9996 22.395 55.7996 20.295C55.5996 18.295 55.5996 16.295 55.5996 14.195C55.6996 10.195 55.9996 6.09503 56.9996 2.09503C57.3996 0.59503 58.7996 -0.30497 60.2996 0.0950295C61.2996 0.39503 62.0996 1.19503 62.2996 2.09503C63.2996 6.09503 63.4996 10.195 63.5996 14.195C63.5996 16.195 63.4996 18.195 63.3996 20.295C63.1996 22.295 62.8996 24.295 62.2996 26.395C61.8996 27.895 60.2996 28.695 58.7996 28.195C57.7996 27.995 57.1996 27.295 56.8996 26.395Z" fill="#75348A"/>
<path fill-rule="evenodd" clip-rule="evenodd" d="M111.099 88.6941C110.299 89.8941 108.799 90.4941 107.499 89.9941C104.599 88.9941 101.799 87.8941 98.8992 86.9941C95.9992 85.9941 93.0991 85.1941 90.1991 84.2941C87.3991 83.4941 84.5992 82.7941 81.7992 82.1941C83.6992 85.5941 85.5992 88.9941 87.5992 92.4941C89.3992 95.5941 91.0992 98.7941 92.7992 102.094C94.3992 105.394 96.0992 108.594 97.3992 111.994C98.0992 113.594 97.2992 115.294 95.7992 115.994C94.3992 116.594 92.8992 115.994 92.0992 114.894L80.3992 96.9941C76.4992 90.9941 72.5992 84.6941 69.3992 78.0941C68.2992 75.8941 69.1992 73.1941 71.3992 71.9941C72.2992 71.5941 73.2991 71.3941 74.1991 71.5941C80.5991 72.6941 86.7992 74.2941 92.8992 76.4941C95.8992 77.5941 98.8992 78.7941 101.799 80.1941C104.699 81.5941 107.499 82.9941 110.299 84.6941C111.499 85.2941 111.999 87.1941 111.099 88.6941Z" fill="#146CB5"/>
<path fill-rule="evenodd" clip-rule="evenodd" d="M49.8999 77.8948C46.5999 84.5948 42.7999 90.8948 38.8999 96.8948L27.2999 114.895C26.3999 116.295 24.4999 116.695 23.0999 115.795C21.7999 114.995 21.3999 113.395 21.8999 112.095C23.2999 108.695 24.8999 105.395 26.4999 102.095C28.1999 98.8947 29.8999 95.6947 31.6999 92.4947C33.5999 88.9947 35.5999 85.5947 37.3999 82.1947C34.5999 82.8947 31.7999 83.5948 28.9999 84.3948C26.0999 85.1948 23.1999 86.0947 20.2999 87.0947C17.3999 87.9947 14.4999 89.0947 11.6999 90.0947C10.0999 90.6947 8.39988 89.7947 7.79988 88.2947C7.29988 86.8947 7.89989 85.3947 9.0999 84.6947C11.7999 82.9947 14.6999 81.5947 17.5999 80.1947C20.4999 78.8947 23.4999 77.5947 26.4999 76.4947C32.4999 74.2947 38.7999 72.6947 45.1999 71.4947C47.5999 71.0947 49.9999 72.6947 50.3999 75.1947C50.3999 76.0947 50.2999 77.0948 49.8999 77.8948Z" fill="#2B2E69"/>
<path fill-rule="evenodd" clip-rule="evenodd" d="M100.801 94.396C102.801 95.396 104.501 96.596 106.201 97.896C107.901 99.196 109.401 100.596 110.901 102.196C113.901 105.196 116.601 108.496 118.801 112.296C119.501 113.596 119.001 115.296 117.701 115.996C116.801 116.496 115.701 116.396 114.801 115.796C111.401 113.396 108.301 110.596 105.401 107.796C103.901 106.396 102.501 104.896 101.101 103.396C99.7005 101.796 98.4006 100.196 97.3006 98.396C96.5006 97.096 96.9005 95.396 98.2005 94.596C99.0005 93.996 100.001 93.996 100.801 94.396Z" fill="#146CB5"/>
<path fill-rule="evenodd" clip-rule="evenodd" d="M21.8999 98.1945C20.7999 99.9945 19.4999 101.694 18.0999 103.194C16.6999 104.694 15.2999 106.194 13.7999 107.694C10.7999 110.494 7.79986 113.294 4.39986 115.694C3.19986 116.594 1.49988 116.294 0.599876 114.994C-0.000123858 114.094 -0.000136048 112.994 0.399864 112.094C2.49986 108.194 5.29985 104.994 8.19985 101.894C9.69985 100.394 11.2999 98.9945 12.8999 97.5945C14.5999 96.2945 16.2999 95.0945 18.2999 94.0945C19.6999 93.3945 21.2999 93.9945 21.9999 95.2945C22.4999 96.3945 22.3999 97.3945 21.8999 98.1945Z" fill="#2B2E69"/>
<path fill-rule="evenodd" clip-rule="evenodd" d="M81.4 23.5953C78.8 29.0953 75.9 34.4953 72.9 39.6953C69.9 44.9953 66.8 50.1953 63.5 55.2953C62.6 56.5953 61.2 57.3953 59.7 57.3953C58.1 57.3953 56.7 56.4953 55.9 55.2953C52.7 50.0953 49.6 44.8953 46.6 39.5953C45.1 36.9953 43.6 34.2953 42.2 31.5953C40.8 28.8953 39.3 26.1953 38 23.4953C37.3 21.9953 37.9 20.1953 39.4 19.3953C40.7 18.6953 42.3 19.1953 43.1 20.2953C45 22.6953 46.7 25.1953 48.5 27.6953C50.3 30.1953 52 32.6953 53.7 35.1953C55.7 38.1953 57.7 41.2953 59.7 44.3953C61.7 41.2953 63.7 38.1953 65.7 35.1953C69.1 30.0953 72.6 25.1953 76.4 20.3953C77.4 19.0953 79.3 18.7953 80.7 19.8953C81.6 20.7953 81.9 22.3953 81.4 23.5953Z" fill="#75348A"/>
</svg>
