<svg width="24" height="24" viewBox="0 0 24 24" fill="none" xmlns="http://www.w3.org/2000/svg">
<path d="M5.76607 4.922C4.65407 5.844 4.36207 7.405 3.77607 10.525C2.95307 14.915 2.54207 17.109 3.74207 18.555C4.94207 20 7.17407 20 11.6391 20H12.3611C16.8261 20 19.0591 20 20.2581 18.555C21.4581 17.109 21.0451 14.915 20.2231 10.525C19.6371 7.405 19.3451 5.844 18.2331 4.922M18.2351 4.922C17.1241 4 15.5361 4 12.3601 4H11.6381C8.46307 4 6.87507 4 5.76407 4.922" stroke="white" stroke-width="1.5"/>
<path opacity="0.5" d="M9.17017 8C9.37677 8.58553 9.75991 9.09257 10.2668 9.45121C10.7736 9.80986 11.3793 10.0025 12.0002 10.0025C12.6211 10.0025 13.2267 9.80986 13.7336 9.45121C14.2404 9.09257 14.6236 8.58553 14.8302 8" stroke="white" stroke-width="1.5" stroke-linecap="round"/>
</svg>
