<svg width="20" height="20" viewBox="0 0 20 20" fill="none" xmlns="http://www.w3.org/2000/svg">
<path d="M18 4.5C18 4.10218 17.842 3.72064 17.5607 3.43934C17.2794 3.15804 16.8978 3 16.5 3H3.5C3.10218 3 2.72065 3.15804 2.43934 3.43934C2.15804 3.72064 2 4.10218 2 4.5V11.5C2 11.8978 2.15804 12.2794 2.43934 12.5607C2.72065 12.842 3.10218 13 3.5 13H5C5.13261 13 5.25979 12.9473 5.35355 12.8536C5.44732 12.7598 5.5 12.6326 5.5 12.5C5.5 12.087 5.602 11.823 5.736 11.644C5.872 11.462 6.07967 11.3207 6.359 11.22C6.947 11.006 7.726 11 8.5 11C8.56577 11 8.6309 10.987 8.69165 10.9618C8.75239 10.9365 8.80756 10.8996 8.854 10.853L9.141 10.567L10.354 9.354C10.821 8.887 11.134 8.75 11.309 8.724C11.449 8.704 11.543 8.746 11.639 8.846C11.844 9.06 11.983 9.213 12.025 9.386C12.051 9.489 12.069 9.724 11.647 10.146L8.647 13.146C8.55311 13.2398 8.50032 13.367 8.50022 13.4996C8.50018 13.5653 8.51307 13.6304 8.53817 13.6911C8.56327 13.7518 8.60008 13.807 8.6465 13.8535C8.69292 13.9 8.74805 13.9369 8.80873 13.9621C8.8694 13.9872 8.93445 14.0002 9.00015 14.0003C9.06584 14.0003 9.13091 13.9874 9.19162 13.9623C9.25234 13.9372 9.30751 13.9004 9.354 13.854L10.207 13H13.293L10.733 15.56C10.5937 15.6994 10.4283 15.8101 10.2463 15.8856C10.0642 15.9611 9.86909 16 9.672 16H2.5C2.36739 16 2.24021 16.0527 2.14645 16.1464C2.05268 16.2402 2 16.3674 2 16.5C2 16.6326 2.05268 16.7598 2.14645 16.8536C2.24021 16.9473 2.36739 17 2.5 17H9.672C10.3347 16.9999 10.9703 16.7366 11.439 16.268L14.707 13H16.5C16.8978 13 17.2794 12.842 17.5607 12.5607C17.842 12.2794 18 11.8978 18 11.5V4.5ZM14.5 12H11.207L12.354 10.854C12.932 10.276 13.131 9.7 12.997 9.149C12.9704 9.04072 12.9318 8.93574 12.882 8.836C13.0117 8.38898 13.0356 7.91792 12.9518 7.46006C12.8681 7.00221 12.6789 6.57013 12.3993 6.198C12.1198 5.82587 11.7574 5.5239 11.341 5.31597C10.9246 5.10805 10.4655 4.99987 10 5C9.42005 4.99996 8.85253 5.16802 8.36611 5.48383C7.8797 5.79964 7.49525 6.24967 7.2593 6.77945C7.02335 7.30923 6.94601 7.89604 7.03665 8.46886C7.12729 9.04168 7.38202 9.57595 7.77 10.007C7.192 10.024 6.56 10.082 6.017 10.28C5.61 10.428 5.221 10.664 4.937 11.044L4.931 11.05C4.83524 10.7455 4.64483 10.4795 4.38747 10.2906C4.1301 10.1018 3.81921 9.99998 3.5 10H3V6H3.5C3.89782 6 4.27936 5.84196 4.56066 5.56066C4.84196 5.27936 5 4.89782 5 4.5V4H15V4.5C15 4.89782 15.158 5.27936 15.4393 5.56066C15.7206 5.84196 16.1022 6 16.5 6H17V10H16.5C16.1022 10 15.7206 10.158 15.4393 10.4393C15.158 10.7206 15 11.1022 15 11.5V12H14.5ZM3.5 12H3.491C3.35996 11.9976 3.23508 11.9439 3.14325 11.8504C3.05142 11.7569 2.99998 11.6311 3 11.5V11H3.5C3.63261 11 3.75979 11.0527 3.85355 11.1464C3.94732 11.2402 4 11.3674 4 11.5V12H3.5ZM10 6C10.5086 6.00001 10.9981 6.19379 11.3689 6.54193C11.7397 6.89006 11.964 7.36639 11.996 7.874C11.766 7.75 11.486 7.687 11.163 7.735C10.681 7.806 10.18 8.113 9.647 8.646L8.74 9.553C8.41913 9.29262 8.18679 8.93925 8.07492 8.54146C7.96305 8.14367 7.97714 7.72099 8.11526 7.33153C8.25337 6.94207 8.50872 6.60495 8.84622 6.36652C9.18371 6.12809 9.58678 6.00005 10 6ZM17 5H16.5C16.3674 5 16.2402 4.94732 16.1464 4.85355C16.0527 4.75979 16 4.63261 16 4.5V4H16.5C16.6326 4 16.7598 4.05268 16.8536 4.14645C16.9473 4.24021 17 4.36739 17 4.5V5ZM4 4V4.5C4 4.63261 3.94732 4.75979 3.85355 4.85355C3.75979 4.94732 3.63261 5 3.5 5H3V4.5C3 4.36739 3.05268 4.24021 3.14645 4.14645C3.24021 4.05268 3.36739 4 3.5 4H4ZM16 12V11.5C16 11.3674 16.0527 11.2402 16.1464 11.1464C16.2402 11.0527 16.3674 11 16.5 11H17V11.5C17 11.6326 16.9473 11.7598 16.8536 11.8536C16.7598 11.9473 16.6326 12 16.5 12H16Z" fill="#383838"/>
</svg>
