<svg width="29" height="28" viewBox="0 0 29 28" fill="none" xmlns="http://www.w3.org/2000/svg">
<path d="M5.16406 10.5H23.8307L22.8566 21.2112C22.8039 21.7909 22.5364 22.33 22.1066 22.7226C21.6769 23.1153 21.1159 23.3331 20.5337 23.3333H8.46106C7.87894 23.3331 7.31793 23.1153 6.88816 22.7226C6.45839 22.33 6.19091 21.7909 6.13823 21.2112L5.16406 10.5Z" stroke="black" stroke-linejoin="round"/>
<path d="M9.82812 12.8337V9.33366C9.82812 8.09598 10.3198 6.909 11.195 6.03383C12.0701 5.15866 13.2571 4.66699 14.4948 4.66699C15.7325 4.66699 16.9195 5.15866 17.7946 6.03383C18.6698 6.909 19.1615 8.09598 19.1615 9.33366V12.8337" stroke="black" stroke-linecap="round"/>
</svg>
