<svg width="40" height="40" viewBox="0 0 40 40" fill="none" xmlns="http://www.w3.org/2000/svg">
<rect width="40" height="40" rx="20" transform="matrix(-1 0 0 1 40 0)" fill="#E01818"/>
<path d="M15 28C13.8954 28 13 27.1046 13 26C13 24.8954 13.8954 24 15 24C16.1046 24 17 24.8954 17 26C17 27.1046 16.1046 28 15 28Z" stroke="white" stroke-width="1.5" stroke-linecap="round" stroke-linejoin="round"/>
<path d="M25 28C23.8954 28 23 27.1046 23 26C23 24.8954 23.8954 24 25 24C26.1046 24 27 24.8954 27 26C27 27.1046 26.1046 28 25 28Z" stroke="white" stroke-width="1.5" stroke-linecap="round" stroke-linejoin="round"/>
<path d="M27 25.972C28.097 25.918 28.78 25.755 29.268 25.268C29.756 24.781 29.918 24.097 29.972 23M23 26H17M13 25.972C11.903 25.918 11.22 25.755 10.732 25.268C10 24.535 10 23.357 10 21V19H14.7C15.445 19 15.817 19 16.118 18.902C16.4182 18.8045 16.691 18.6373 16.9141 18.4141C17.1373 18.191 17.3045 17.9182 17.402 17.618C17.5 17.317 17.5 16.945 17.5 16.2C17.5 15.083 17.5 14.525 17.647 14.073C17.7933 13.6228 18.0441 13.2136 18.3788 12.8788C18.7136 12.5441 19.1228 12.2933 19.573 12.147C20.025 12 20.583 12 21.7 12H30M30 16H24M30 19H26" stroke="white" stroke-width="1.5" stroke-linecap="round" stroke-linejoin="round"/>
<path d="M17.5 14H15.679C14.223 14 13.496 14 12.904 14.354C12.311 14.707 11.966 15.348 11.276 16.63L10 19" stroke="white" stroke-width="1.5" stroke-linecap="round" stroke-linejoin="round"/>
</svg>
