<svg width="14" height="16" viewBox="0 0 14 16" fill="none" xmlns="http://www.w3.org/2000/svg">
<g clip-path="url(#clip0_785_7680)">
<path d="M2.74626 15.6801H11.2519C12.7447 15.6801 13.9591 14.4657 13.9591 12.9729V4.88008C13.9591 4.61608 13.7431 4.40008 13.4791 4.40008H10.5991V3.68008C10.5991 1.69528 8.98386 0.0800781 6.99906 0.0800781C5.01426 0.0800781 3.39906 1.69528 3.39906 3.68008V4.40008H0.519062C0.255062 4.40008 0.0390625 4.61608 0.0390625 4.88008V12.9729C0.0390625 14.4657 1.25346 15.6801 2.74626 15.6801ZM4.35906 3.68008C4.35906 2.22328 5.54226 1.04008 6.99906 1.04008C8.45586 1.04008 9.63906 2.22328 9.63906 3.68008V4.40008H4.35906V3.68008ZM0.999062 5.36008H3.39906V6.56008C3.39906 6.82408 3.61506 7.04008 3.87906 7.04008C4.14306 7.04008 4.35906 6.82408 4.35906 6.56008V5.36008H9.63906V6.56008C9.63906 6.82408 9.85506 7.04008 10.1191 7.04008C10.3831 7.04008 10.5991 6.82408 10.5991 6.56008V5.36008H12.9991V12.9729C12.9991 13.9353 12.2143 14.7201 11.2519 14.7201H2.74626C1.78386 14.7201 0.999062 13.9353 0.999062 12.9729V5.36008Z" fill="#EF4444"/>
</g>
<defs>
<clipPath id="clip0_785_7680">
<rect width="14" height="16" fill="white"/>
</clipPath>
</defs>
</svg>
