<svg width="16" height="17" viewBox="0 0 16 17" fill="none" xmlns="http://www.w3.org/2000/svg">
<path fill-rule="evenodd" clip-rule="evenodd" d="M3.10971 1.00343L12.36 1C12.6473 0.999941 12.9241 1.10811 13.1353 1.30295C13.3464 1.4978 13.4764 1.76503 13.4994 2.05143L14.5211 14.6217C14.5333 14.7714 14.5159 14.9219 14.4699 15.0648C14.4239 15.2078 14.3502 15.3402 14.253 15.4546C14.1558 15.569 14.0369 15.6632 13.9033 15.7316C13.7697 15.8001 13.6239 15.8416 13.4743 15.8537L13.3829 15.8571H2.14286C1.83975 15.8571 1.54906 15.7367 1.33474 15.5224C1.12041 15.3081 1 15.0174 1 14.7143L1.00343 14.6263L1.97029 2.05829C1.99245 1.77128 2.12211 1.5032 2.33335 1.30764C2.54459 1.11208 2.82185 1.00344 3.10971 1.00343Z" stroke="#E01818" stroke-width="1.5" stroke-linecap="round" stroke-linejoin="round"/>
<path d="M11.1943 5.57141V6.30855C11.1943 7.57141 9.02859 7.85713 7.76573 7.85713C6.50287 7.85713 4.33716 7.4057 4.33716 6.14284V5.57141" stroke="#E01818" stroke-width="1.5" stroke-linecap="round" stroke-linejoin="round"/>
</svg>
